<?xml version="1.0" encoding="utf-8"?>
<!-- Generator: Adobe Illustrator 17.1.0, SVG Export Plug-In . SVG Version: 6.00 Build 0)  -->
<!DOCTYPE svg PUBLIC "-//W3C//DTD SVG 1.1//EN" "http://www.w3.org/Graphics/SVG/1.1/DTD/svg11.dtd">
<svg version="1.1" xmlns="http://www.w3.org/2000/svg" xmlns:xlink="http://www.w3.org/1999/xlink" x="0px" y="0px"
	 viewBox="0 0 100 100" enable-background="new 0 0 100 100" xml:space="preserve">
<g id="Layer_1">
</g>
<g id="Layer_2">
	<g display="none">
		<path display="inline" d="M65.9,10l12.7,12.7V90H21.4V10H65.9 M70.1,0H11.4v100h77.3V18.5L70.1,0L70.1,0z"/>
	</g>
	<g>
		<polygon fill="#333333" points="88.6,100.2 11.4,100.2 11.4,61.5 21.4,61.5 21.4,90.2 78.6,90.2 78.6,62.5 88.6,62.5 		"/>
	</g>
	<g>
		<polygon fill="#333333" points="88.6,42 78.6,42 78.6,22.4 66.4,10 21.4,10 21.4,41.1 11.4,41.1 11.4,0 70.6,0 88.6,18.3 		"/>
	</g>
	<g>
		<polyline fill="none" stroke="#333333" stroke-width="10" stroke-miterlimit="10" points="4.3,39 22.3,45 40.2,39 58.1,45
			76.1,39 94,45 		"/>
	</g>
	<g>
		<polyline fill="none" stroke="#333333" stroke-width="10" stroke-miterlimit="10" points="4.3,59 22.3,65 40.2,59 58.1,65 
			76.1,59 94,65 		"/>
	</g>
</g>
</svg>
