<?xml version="1.0" encoding="UTF-8"?>
<!-- Generator: Adobe Illustrator 17.1.0, SVG Export Plug-In . SVG Version: 6.00 Build 0)  -->
<!DOCTYPE svg PUBLIC "-//W3C//DTD SVG 1.1//EN" "http://www.w3.org/Graphics/SVG/1.1/DTD/svg11.dtd">
<svg version="1.1" id="Layer_1" xmlns="http://www.w3.org/2000/svg" xmlns:xlink="http://www.w3.org/1999/xlink" x="0px" y="0px" viewBox="0 0 100 100" enable-background="new 0 0 100 100" xml:space="preserve">
<g id="Layer_1_1_">
</g>
<g id="Layer_2">
	<g>
		<path fill="#333" d="M65.9,10l12.7,12.7V90H21.4V10H65.9 M70.1,0H11.4v100h77.3V18.5L70.1,0L70.1,0z"/>
	</g>
	<g enable-background="new    ">
		<path fill="#333" d="M50.8,57.9c-2.3,0-4.6,0-6.8,0c-0.1,0,0-2.8,0-3.2c0.1-2.8,0.9-5.3,2.6-7.5c1.8-2.4,4.4-4,6.7-5.9    c2.1-1.8,4-3.8,4-6.7c0-6-6.6-7.5-11.4-5.9c-1.8,0.6-3.4,1.6-4.8,2.8c-0.2,0.2-2,2-1.9,2c-0.2-0.1-0.4-0.3-0.6-0.4    c-1.4-1.1-2.8-2.1-4.2-3.2c3.7-4.3,8.6-7.1,14.3-7.5c5.5-0.3,11.7,1.3,14.5,6.5c1.4,2.5,1.7,5.6,1,8.3c-0.6,2.7-2.5,4.9-4.5,6.6    c-2.2,1.8-4.8,3.2-6.6,5.5c-1.6,1.9-2.2,4-2.2,6.4C50.8,56.5,50.8,57.2,50.8,57.9z M42.3,70.9c0-2.9,2.3-5.2,5.2-5.2    c2.9,0,5.3,2.3,5.3,5.2c0,2.9-2.4,5.3-5.3,5.3C44.7,76.2,42.3,73.8,42.3,70.9z"/>
	</g>
</g>
</svg>
