<?xml version="1.0" encoding="UTF-8"?>
<!-- Generator: Adobe Illustrator 17.1.0, SVG Export Plug-In . SVG Version: 6.00 Build 0)  -->
<!DOCTYPE svg PUBLIC "-//W3C//DTD SVG 1.1//EN" "http://www.w3.org/Graphics/SVG/1.1/DTD/svg11.dtd">
<svg version="1.1" id="Your_Icon" xmlns="http://www.w3.org/2000/svg" xmlns:xlink="http://www.w3.org/1999/xlink" x="0px" y="0px" viewBox="0 0 100 100" enable-background="new 0 0 100 100" xml:space="preserve">
<g>
	<g>
		<path fill="#333" d="M49.9,67.8c-2.5,0-4.7,0.9-6.5,2.6c-1.8,1.8-2.8,3.9-2.8,6.3c0,2.4,0.9,4.5,2.8,6.2c1.8,1.7,4,2.6,6.5,2.6    c2.4,0,4.6-0.9,6.4-2.6c1.8-1.7,2.8-3.8,2.8-6.2c0-2.4-0.9-4.5-2.8-6.3C54.5,68.7,52.3,67.8,49.9,67.8z M43,36.7    c0.7,2.7,1.4,6.1,2.3,10.2C46.1,50.9,47,56,48,62.1h3.7c1-6,1.9-11.1,2.8-15.2c0.8-4.1,1.6-7.5,2.3-10.3c0.7-2.9,1.3-5.4,1.8-7.6    c0.5-2.2,0.7-3.9,0.7-5.2c0-2.4-0.9-4.5-2.8-6.3c-1.9-1.7-4-2.6-6.6-2.6c-2.6,0-4.7,0.9-6.6,2.6c-1.8,1.7-2.7,3.8-2.7,6.3    c0,1.2,0.2,3,0.8,5.4C41.8,31.7,42.3,34.2,43,36.7z M43.3,54.8c-0.1-0.3-0.1-0.6-0.2-0.9c-5,1.1-9.8,3.6-13.7,7.5l5.9,5.8    c2.7-2.7,6-4.4,9.4-5.3C44.2,59.4,43.7,57,43.3,54.8z M36.5,22c0-2,0.4-3.8,1.3-5.5c-12.8,2.3-25,8.3-34.9,18.2c0,0,0,0.1-0.1,0.1    l5.9,5.9c0-0.1,0-0.1,0.1-0.1c8-8,17.7-13.1,28-15.4C36.6,23.9,36.5,22.8,36.5,22z M40,40.3c-0.4-1.6-0.7-3.1-1.1-4.6    c-8.3,1.9-16.3,6.1-22.8,12.5l5.9,5.8c5.3-5.3,11.9-8.7,18.8-10.2C40.5,42.6,40.3,41.4,40,40.3z M95.8,34.7    c-9.6-9.6-21.4-15.5-33.8-18c0.8,1.6,1.2,3.4,1.2,5.3c0,1-0.1,2.1-0.3,3.5c9.9,2.4,19.2,7.5,26.9,15.2c0.1,0.1,0.1,0.1,0.2,0.2    l5.9-5.9C95.9,34.9,95.8,34.8,95.8,34.7z M60.7,35.9c-0.3,1.4-0.7,2.8-1,4.3c-0.3,1.2-0.6,2.5-0.9,3.8c6.5,1.6,12.7,5,17.8,10.1    c0.1,0,0.1,0,0.1,0.1l5.9-5.9l-0.1-0.1C76.2,42,68.7,37.9,60.7,35.9z M69.2,61.4c-3.6-3.6-8-6.1-12.7-7.3    c-0.1,0.3-0.1,0.5-0.2,0.8c-0.5,2.2-1,4.7-1.5,7.4c3.1,0.9,6,2.6,8.5,5c0,0.1,0,0.1,0.1,0.1l5.8-5.8    C69.4,61.4,69.4,61.4,69.2,61.4z"/>
	</g>
</g>
</svg>
