<?xml version="1.0" encoding="UTF-8"?>
<!-- Generator: Adobe Illustrator 17.1.0, SVG Export Plug-In . SVG Version: 6.00 Build 0)  -->
<!DOCTYPE svg PUBLIC "-//W3C//DTD SVG 1.1//EN" "http://www.w3.org/Graphics/SVG/1.1/DTD/svg11.dtd">
<svg version="1.1" id="Layer_1" sodipodi:docname="connected.svg" inkscape:version="0.48.3.1 r9886" xmlns:dc="http://purl.org/dc/elements/1.1/" xmlns:cc="http://creativecommons.org/ns#" xmlns:rdf="http://www.w3.org/1999/02/22-rdf-syntax-ns#" xmlns:svg="http://www.w3.org/2000/svg" xmlns:sodipodi="http://sodipodi.sourceforge.net/DTD/sodipodi-0.dtd" xmlns:inkscape="http://www.inkscape.org/namespaces/inkscape" xmlns="http://www.w3.org/2000/svg" xmlns:xlink="http://www.w3.org/1999/xlink" x="0px" y="0px" viewBox="0 0 100 100" enable-background="new 0 0 100 100" xml:space="preserve">
<sodipodi:namedview inkscape:window-maximized="1" inkscape:window-y="24" inkscape:window-x="1920" inkscape:window-height="1056" inkscape:window-width="1920" inkscape:current-layer="Layer_1" inkscape:pageopacity="0" fit-margin-bottom="0" fit-margin-right="0" inkscape:pageshadow="2" fit-margin-top="0" fit-margin-left="0" showgrid="false" inkscape:cy="10.674302" inkscape:cx="-14.02487" inkscape:zoom="2.36" borderopacity="1" bordercolor="#666666" pagecolor="#ffffff" id="namedview5" gridtolerance="10" objecttolerance="10" showguides="true" guidetolerance="10" inkscape:guide-bbox="true">
	<sodipodi:guide id="guide3004" position="32.526912,74.953319" orientation="-0.70710678,0.70710678"/>
</sodipodi:namedview>
<path id="path3" inkscape:connector-curvature="0" fill="#333333" d="M50.6,71.3l13.6-13.6c1.2-1.2,1.2-3,0-4.2  c-1.2-1.2-3-1.2-4.2,0L46.5,67.1L32.9,53.5L46.5,40c1.2-1.2,1.2-3,0-4.2c-1.2-1.2-3-1.2-4.2,0L28.7,49.4L24,44.7L15.7,53  c-7.6,7.6-8.5,19.3-2.8,27.9L0,93.7l6.3,6.3l12.8-12.8c8.6,5.7,20.3,4.8,27.9-2.8l8.4-8.4C55.3,76,50.6,71.3,50.6,71.3z"/>
<path id="path3-7" sodipodi:nodetypes="csccccscc" inkscape:connector-curvature="0" fill="#333333" d="M76,55.3l8.4-8.4  c7.6-7.6,8.5-19.3,2.8-27.9L100,6.3L93.7,0L80.9,12.8C72.3,7.1,60.6,8.1,53,15.7L44.7,24C75.3,54.7,44.9,24.3,76,55.3z"/>
</svg>
