<svg xmlns="http://www.w3.org/2000/svg" xmlns:xlink="http://www.w3.org/1999/xlink" version="1.1" id="broken_connection" x="0px" y="0px" width="100px" height="100px" viewBox="0 0 100 100" enable-background="new 0 0 100 100" xml:space="preserve">
<g>
	<path fill="#333" d="M82.457,12.687c-4.317,0-7.816,3.499-7.816,7.815c0,1.457,0.405,2.814,1.1,3.982L72.617,27h-3.562   c-0.638,0-1.237,0.304-1.614,0.819l-0.898,1.228c-0.652,0.891-0.458,2.143,0.433,2.795c0.356,0.261,0.771,0.386,1.18,0.386   c0.616,0,1.225-0.284,1.616-0.819L70.07,31h3.252c0.456,0,0.899-0.156,1.255-0.442l4.038-3.253   c1.136,0.642,2.444,1.013,3.842,1.013c4.316,0,7.814-3.499,7.814-7.815S86.773,12.687,82.457,12.687z"/>
	<path fill="#333" d="M59.396,30.27l-3.851,0.892l-0.797-1.139c-0.367-0.525-0.965-0.843-1.605-0.853c-0.684-0.028-1.248,0.287-1.633,0.799   l-3.035,4.046l-2.953,1.193c-1.431-1.818-3.646-2.99-6.14-2.99c-4.316,0-7.815,3.499-7.815,7.815c0,2.349,1.041,4.45,2.681,5.883   L21.357,72.024c-0.501-0.102-1.02-0.155-1.551-0.155c-4.317,0-7.816,3.499-7.816,7.814c0,4.316,3.499,7.815,7.816,7.815   c4.315,0,7.815-3.499,7.815-7.815c0-2.348-1.041-4.448-2.68-5.881l12.892-26.109c0.501,0.101,1.02,0.155,1.551,0.155   c4.316,0,7.815-3.499,7.815-7.815c0-0.392-0.038-0.773-0.094-1.149l3.386-1.368c0.338-0.137,0.632-0.363,0.851-0.654l1.713-2.284   c0.471,0.657,1.289,0.969,2.079,0.786l5.166-1.197c1.076-0.249,1.746-1.324,1.497-2.399C61.547,30.691,60.469,30.022,59.396,30.27z   "/>
</g>
</svg>
